# File exported by Houdini 18.0.566 (www.sidefx.com)
# 192 points
# 192 vertices
# 54 primitives
# Bounds: [-0.25, -0.649999976, -0.386929035] to [0.25, 0.649999976, 0.25]
g 
v 0.25 0.5 0
v 0.216506347 0.5 -0.125
v 0.124999993 0.5 -0.216506362
v -1.09278471e-08 0.5 -0.25
v -0.125000015 0.5 -0.216506347
v -0.216506347 0.5 -0.125000015
v -0.25 0.5 2.18556941e-08
v -0.216506317 0.5 0.125000045
v -0.124999978 0.5 0.216506362
v 2.98122016e-09 0.5 0.25
v 0.124999978 0.5 0.216506362
v 0.216506392 0.5 0.12499994
v 0.25 -0.5 0
v 0.216506347 -0.5 -0.125
v 0.124999993 -0.5 -0.216506362
v -1.09278471e-08 -0.5 -0.25
v -0.125000015 -0.5 -0.216506347
v -0.216506347 -0.5 -0.125000015
v -0.25 -0.5 2.18556941e-08
v -0.216506317 -0.5 0.125000045
v -0.124999978 -0.5 0.216506362
v 2.98122016e-09 -0.5 0.25
v 0.124999978 -0.5 0.216506362
v 0.216506392 -0.5 0.12499994
v 2.79396772e-09 0.649999976 -8.19563883e-09
v 0 -0.649999976 -1.8440188e-08
v -0.192009658 -0.587453306 -0.0882922038
v -0.121298969 -0.612453341 -0.188292205
v -0.0505882874 -0.587453306 -0.0882922038
v -0.121298969 -0.56245333 0.0117077976
v -0.192009658 -0.552097976 -0.229713559
v -0.121298969 -0.577097952 -0.329713583
v -0.0505882874 -0.552097976 -0.229713559
v -0.121298969 -0.52709794 -0.129713565
v 0.192009658 -0.587453306 -0.0882922038
v 0.121298969 -0.612453341 -0.188292205
v 0.0505882874 -0.587453306 -0.0882922038
v 0.121298969 -0.56245333 0.0117077976
v 0.192009658 -0.552097976 -0.229713559
v 0.121298969 -0.577097952 -0.329713583
v 0.0505882874 -0.552097976 -0.229713559
v 0.121298969 -0.52709794 -0.129713565
v 0.0468625613 0.559344113 -0.055177547
v 1.38791196e-17 0.573694408 -0.192593515
v -0.0468625613 0.559344113 -0.055177547
v -2.3812801e-18 0.544993877 0.0822384208
v 0.0468625613 0.539049804 -0.24951309
v 2.3812801e-18 0.55340004 -0.386929035
v -0.0468625613 0.539049804 -0.24951309
v -1.38791196e-17 0.524699509 -0.112097114
v -1.38791196e-17 0.524699509 -0.112097114
v -1.38791196e-17 0.524699509 -0.112097114
v -0.0468625613 0.539049804 -0.24951309
v -0.0468625613 0.539049804 -0.24951309
v 2.3812801e-18 0.55340004 -0.386929035
v 2.3812801e-18 0.55340004 -0.386929035
v 0.0468625613 0.539049804 -0.24951309
v 0.0468625613 0.539049804 -0.24951309
v -2.3812801e-18 0.544993877 0.0822384208
v -2.3812801e-18 0.544993877 0.0822384208
v -0.0468625613 0.559344113 -0.055177547
v -0.0468625613 0.559344113 -0.055177547
v 1.38791196e-17 0.573694408 -0.192593515
v 1.38791196e-17 0.573694408 -0.192593515
v 0.0468625613 0.559344113 -0.055177547
v 0.0468625613 0.559344113 -0.055177547
v 0.121298969 -0.52709794 -0.129713565
v 0.121298969 -0.52709794 -0.129713565
v 0.0505882874 -0.552097976 -0.229713559
v 0.0505882874 -0.552097976 -0.229713559
v 0.121298969 -0.577097952 -0.329713583
v 0.121298969 -0.577097952 -0.329713583
v 0.192009658 -0.552097976 -0.229713559
v 0.192009658 -0.552097976 -0.229713559
v 0.121298969 -0.56245333 0.0117077976
v 0.121298969 -0.56245333 0.0117077976
v 0.0505882874 -0.587453306 -0.0882922038
v 0.0505882874 -0.587453306 -0.0882922038
v 0.121298969 -0.612453341 -0.188292205
v 0.121298969 -0.612453341 -0.188292205
v 0.192009658 -0.587453306 -0.0882922038
v 0.192009658 -0.587453306 -0.0882922038
v -0.121298969 -0.52709794 -0.129713565
v -0.121298969 -0.52709794 -0.129713565
v -0.0505882874 -0.552097976 -0.229713559
v -0.0505882874 -0.552097976 -0.229713559
v -0.121298969 -0.577097952 -0.329713583
v -0.121298969 -0.577097952 -0.329713583
v -0.192009658 -0.552097976 -0.229713559
v -0.192009658 -0.552097976 -0.229713559
v -0.121298969 -0.56245333 0.0117077976
v -0.121298969 -0.56245333 0.0117077976
v -0.0505882874 -0.587453306 -0.0882922038
v -0.0505882874 -0.587453306 -0.0882922038
v -0.121298969 -0.612453341 -0.188292205
v -0.121298969 -0.612453341 -0.188292205
v -0.192009658 -0.587453306 -0.0882922038
v -0.192009658 -0.587453306 -0.0882922038
v 0 -0.649999976 -1.8440188e-08
v 0 -0.649999976 -1.8440188e-08
v 0 -0.649999976 -1.8440188e-08
v 0 -0.649999976 -1.8440188e-08
v 0 -0.649999976 -1.8440188e-08
v 0 -0.649999976 -1.8440188e-08
v 0 -0.649999976 -1.8440188e-08
v 0 -0.649999976 -1.8440188e-08
v 0 -0.649999976 -1.8440188e-08
v 0 -0.649999976 -1.8440188e-08
v 0 -0.649999976 -1.8440188e-08
v 2.79396772e-09 0.649999976 -8.19563883e-09
v 2.79396772e-09 0.649999976 -8.19563883e-09
v 2.79396772e-09 0.649999976 -8.19563883e-09
v 2.79396772e-09 0.649999976 -8.19563883e-09
v 2.79396772e-09 0.649999976 -8.19563883e-09
v 2.79396772e-09 0.649999976 -8.19563883e-09
v 2.79396772e-09 0.649999976 -8.19563883e-09
v 2.79396772e-09 0.649999976 -8.19563883e-09
v 2.79396772e-09 0.649999976 -8.19563883e-09
v 2.79396772e-09 0.649999976 -8.19563883e-09
v 2.79396772e-09 0.649999976 -8.19563883e-09
v 0.216506392 -0.5 0.12499994
v 0.216506392 -0.5 0.12499994
v 0.216506392 -0.5 0.12499994
v 0.124999978 -0.5 0.216506362
v 0.124999978 -0.5 0.216506362
v 0.124999978 -0.5 0.216506362
v 2.98122016e-09 -0.5 0.25
v 2.98122016e-09 -0.5 0.25
v 2.98122016e-09 -0.5 0.25
v -0.124999978 -0.5 0.216506362
v -0.124999978 -0.5 0.216506362
v -0.124999978 -0.5 0.216506362
v -0.216506317 -0.5 0.125000045
v -0.216506317 -0.5 0.125000045
v -0.216506317 -0.5 0.125000045
v -0.25 -0.5 2.18556941e-08
v -0.25 -0.5 2.18556941e-08
v -0.25 -0.5 2.18556941e-08
v -0.216506347 -0.5 -0.125000015
v -0.216506347 -0.5 -0.125000015
v -0.216506347 -0.5 -0.125000015
v -0.125000015 -0.5 -0.216506347
v -0.125000015 -0.5 -0.216506347
v -0.125000015 -0.5 -0.216506347
v -1.09278471e-08 -0.5 -0.25
v -1.09278471e-08 -0.5 -0.25
v -1.09278471e-08 -0.5 -0.25
v 0.124999993 -0.5 -0.216506362
v 0.124999993 -0.5 -0.216506362
v 0.124999993 -0.5 -0.216506362
v 0.216506347 -0.5 -0.125
v 0.216506347 -0.5 -0.125
v 0.216506347 -0.5 -0.125
v 0.25 -0.5 0
v 0.25 -0.5 0
v 0.25 -0.5 0
v 0.216506392 0.5 0.12499994
v 0.216506392 0.5 0.12499994
v 0.216506392 0.5 0.12499994
v 0.124999978 0.5 0.216506362
v 0.124999978 0.5 0.216506362
v 0.124999978 0.5 0.216506362
v 2.98122016e-09 0.5 0.25
v 2.98122016e-09 0.5 0.25
v 2.98122016e-09 0.5 0.25
v -0.124999978 0.5 0.216506362
v -0.124999978 0.5 0.216506362
v -0.124999978 0.5 0.216506362
v -0.216506317 0.5 0.125000045
v -0.216506317 0.5 0.125000045
v -0.216506317 0.5 0.125000045
v -0.25 0.5 2.18556941e-08
v -0.25 0.5 2.18556941e-08
v -0.25 0.5 2.18556941e-08
v -0.216506347 0.5 -0.125000015
v -0.216506347 0.5 -0.125000015
v -0.216506347 0.5 -0.125000015
v -0.125000015 0.5 -0.216506347
v -0.125000015 0.5 -0.216506347
v -0.125000015 0.5 -0.216506347
v -1.09278471e-08 0.5 -0.25
v -1.09278471e-08 0.5 -0.25
v -1.09278471e-08 0.5 -0.25
v 0.124999993 0.5 -0.216506362
v 0.124999993 0.5 -0.216506362
v 0.124999993 0.5 -0.216506362
v 0.216506347 0.5 -0.125
v 0.216506347 0.5 -0.125
v 0.216506347 0.5 -0.125
v 0.25 0.5 0
v 0.25 0.5 0
v 0.25 0.5 0
vn 0.965925813 -0 -0.258819073
vn 0.965925813 -0 -0.258819073
vn 0.965925813 -0 -0.258819073
vn 0.965925813 -0 -0.258819073
vn 0.707106829 -0 -0.707106769
vn 0.707106829 -0 -0.707106769
vn 0.707106829 -0 -0.707106769
vn 0.707106829 -0 -0.707106769
vn 0.258818984 -0 -0.965925872
vn 0.258818984 -0 -0.965925872
vn 0.258818984 -0 -0.965925872
vn 0.258818984 -0 -0.965925872
vn -0.258819073 0 -0.965925813
vn -0.258819073 0 -0.965925813
vn -0.258819073 -0 -0.965925813
vn -0.258819073 -0 -0.965925813
vn -0.707106769 0 -0.707106769
vn -0.707106769 0 -0.707106769
vn -0.707106769 -0 -0.707106769
vn -0.707106769 -0 -0.707106769
vn -0.965925872 0 -0.258819014
vn -0.965925872 0 -0.258819014
vn -0.965925872 -0 -0.258819014
vn -0.965925872 -0 -0.258819014
vn -0.965925753 -0 0.258819222
vn -0.965925753 -0 0.258819222
vn -0.965925753 -0 0.258819222
vn -0.965925753 -0 0.258819222
vn -0.707106769 -0 0.707106888
vn -0.707106769 -0 0.707106888
vn -0.707106769 -0 0.707106888
vn -0.707106769 -0 0.707106888
vn -0.258819014 -0 0.965925872
vn -0.258819014 -0 0.965925872
vn -0.258819014 -0 0.965925872
vn -0.258819014 -0 0.965925872
vn 0.258819014 -0 0.965925872
vn 0.258819014 -0 0.965925872
vn 0.258819014 0 0.965925872
vn 0.258819014 0 0.965925872
vn 0.707106829 -0 0.707106769
vn 0.707106829 -0 0.707106769
vn 0.707106829 0 0.707106769
vn 0.707106829 0 0.707106769
vn 0.965925872 -0 0.258818895
vn 0.965925872 -0 0.258818895
vn 0.965925872 0 0.258818895
vn 0.965925872 0 0.258818895
vn 0.509675324 0.849458992 -0.136567086
vn 0.509675324 0.849458933 -0.136567101
vn 0.509675324 0.849458992 -0.136567101
vn 0.509675264 0.849459052 0.136567011
vn 0.509675264 0.849458992 0.136567026
vn 0.509675324 0.849458992 0.136567026
vn 0.373108238 0.849458992 0.373108178
vn 0.373108208 0.849458992 0.373108119
vn 0.373108208 0.849458992 0.373108119
vn 0.136567026 0.849458992 0.509675264
vn 0.136567026 0.849458992 0.509675264
vn 0.136567026 0.849458992 0.509675264
vn -0.136567041 0.849458992 0.509675324
vn -0.136567056 0.849458992 0.509675324
vn -0.136567056 0.849458992 0.509675324
vn -0.373108178 0.849458992 0.373108238
vn -0.373108119 0.849458933 0.373108208
vn -0.373108149 0.849458992 0.373108238
vn -0.509675264 0.849458992 0.136567205
vn -0.509675205 0.849458933 0.13656719
vn -0.509675205 0.849458933 0.13656719
vn -0.509675264 0.849458992 -0.136567071
vn -0.509675264 0.849458992 -0.136567056
vn -0.509675264 0.849458992 -0.136567056
vn -0.373108238 0.849458992 -0.373108238
vn -0.373108268 0.849458992 -0.373108268
vn -0.373108208 0.849458873 -0.373108208
vn -0.136567086 0.849458933 -0.509675324
vn -0.136567101 0.849458933 -0.509675384
vn -0.136567101 0.849458873 -0.509675384
vn 0.136567011 0.849458933 -0.509675324
vn 0.136567026 0.849458873 -0.509675384
vn 0.136567026 0.849458933 -0.509675384
vn 0.373108268 0.849458992 -0.373108238
vn 0.373108268 0.849458873 -0.373108208
vn 0.373108268 0.849458873 -0.373108208
vn 0.509675324 -0.849458992 -0.136567086
vn 0.509675324 -0.849458992 -0.136567101
vn 0.509675324 -0.849458933 -0.136567101
vn 0.373108238 -0.849458992 -0.373108238
vn 0.373108208 -0.849458873 -0.373108208
vn 0.373108208 -0.849458873 -0.373108208
vn 0.136567011 -0.849458933 -0.509675324
vn 0.136567026 -0.849458933 -0.509675384
vn 0.136567026 -0.849458873 -0.509675384
vn -0.136567086 -0.849458933 -0.509675324
vn -0.136567101 -0.849458873 -0.509675384
vn -0.136567101 -0.849458873 -0.509675384
vn -0.373108238 -0.849458992 -0.373108238
vn -0.373108208 -0.849458873 -0.373108208
vn -0.373108268 -0.849458992 -0.373108268
vn -0.509675264 -0.849458992 -0.136567071
vn -0.509675264 -0.849458992 -0.136567056
vn -0.509675264 -0.849458992 -0.136567056
vn -0.509675264 -0.849458992 0.136567205
vn -0.509675205 -0.849458933 0.13656719
vn -0.509675205 -0.849458933 0.13656719
vn -0.373108178 -0.849458992 0.373108238
vn -0.373108149 -0.849458992 0.373108238
vn -0.373108119 -0.849458933 0.373108208
vn -0.136567071 -0.849459052 0.509675264
vn -0.136567056 -0.849458992 0.509675264
vn -0.136567056 -0.849458992 0.509675264
vn 0.136567071 -0.849459052 0.509675264
vn 0.136567056 -0.849458992 0.509675205
vn 0.136567056 -0.849458992 0.509675205
vn 0.373108238 -0.849458992 0.373108178
vn 0.373108208 -0.849458992 0.373108119
vn 0.373108208 -0.849458992 0.373108119
vn 0.509675264 -0.849459052 0.136567011
vn 0.509675324 -0.849458992 0.136567026
vn 0.509675264 -0.849458992 0.136567026
vn -0.565685868 -0.799999595 -0.200000167
vn -0.56568563 -0.799999893 -0.199999943
vn -0.565685213 -0.80000025 -0.200000018
vn -0.565685451 -0.799999952 -0.200000256
vn 0.565685689 -0.799999952 -0.199999943
vn 0.565685928 -0.799999595 -0.200000152
vn 0.565685511 -0.799999952 -0.200000256
vn 0.565685213 -0.800000131 -0.200000003
vn 0.565685451 0.799999952 0.200000256
vn 0.565685213 0.80000025 0.200000018
vn 0.565685689 0.799999952 0.199999943
vn 0.565685868 0.799999595 0.200000167
vn -0.565685213 0.800000191 0.200000018
vn -0.565685451 0.800000012 0.200000271
vn -0.565685928 0.799999654 0.200000197
vn -0.56568557 0.799999893 0.199999943
vn 4.15273291e-07 -0.970142424 0.242535681
vn -0 -0.970142543 0.242535412
vn -4.15273234e-07 -0.970142484 0.242535681
vn -0 -0.970142365 0.242535949
vn -0 0.970142603 -0.242535353
vn -4.63189394e-07 0.970142543 -0.242535681
vn -0 0.970142424 -0.242535979
vn 4.63189394e-07 0.970142484 -0.242535666
vn 0.565685868 -0.799999595 -0.200000167
vn 0.565685451 -0.799999952 -0.200000256
vn 0.565685213 -0.80000025 -0.200000018
vn 0.56568563 -0.799999893 -0.199999943
vn -0.565685689 -0.799999952 -0.199999943
vn -0.565685213 -0.800000131 -0.200000003
vn -0.565685511 -0.799999952 -0.200000256
vn -0.565685928 -0.799999595 -0.200000152
vn -0.565685451 0.799999952 0.200000256
vn -0.565685868 0.799999595 0.200000167
vn -0.565685689 0.799999952 0.199999943
vn -0.565685213 0.80000025 0.200000018
vn 0.565685213 0.800000191 0.200000018
vn 0.56568557 0.799999893 0.199999943
vn 0.565685928 0.799999654 0.200000197
vn 0.565685451 0.800000012 0.200000271
vn -4.15273291e-07 -0.970142424 0.242535681
vn -0 -0.970142365 0.242535949
vn 4.15273234e-07 -0.970142484 0.242535681
vn -0 -0.970142543 0.242535412
vn -0 0.970142603 -0.242535353
vn -4.63189394e-07 0.970142484 -0.242535666
vn -0 0.970142424 -0.242535979
vn 4.63189394e-07 0.970142543 -0.242535681
vn 0.520217061 0.849414885 -0.0887040123
vn 0.520216525 0.849415421 -0.0887037888
vn 0.52021569 0.849415898 -0.088703841
vn 0.520216286 0.849415481 -0.0887040794
vn -0.520216525 0.849415421 -0.0887037888
vn -0.520217061 0.849414885 -0.0887040123
vn -0.520216286 0.849415481 -0.0887040794
vn -0.52021569 0.849415898 -0.088703841
vn -0.520216286 -0.849415481 0.088704057
vn -0.52021569 -0.849415779 0.0887038261
vn -0.520216525 -0.849415421 0.0887037888
vn -0.520217001 -0.849414885 0.0887039974
vn 0.52021569 -0.849415779 0.0887038261
vn 0.520216286 -0.849415481 0.088704057
vn 0.520217001 -0.849414885 0.0887039974
vn 0.520216525 -0.849415421 0.0887037888
vn -6.29302804e-07 0.994591475 0.103864565
vn -0 0.994591475 0.103864342
vn 6.29302804e-07 0.994591475 0.103864565
vn -0 0.994591355 0.103864782
vn -0 -0.994591534 -0.103864387
vn 5.93342747e-07 -0.994591475 -0.103864588
vn -0 -0.994591355 -0.103864782
vn -5.93342747e-07 -0.994591475 -0.103864588
g white
f 1//1 13//2 14//3 2//4
f 187//5 151//6 15//7 3//8
f 184//9 148//10 16//11 4//12
f 181//13 145//14 17//15 5//16
f 178//17 142//18 18//19 6//20
f 175//21 139//22 19//23 7//24
g 
f 172//25 136//26 20//27 8//28
f 169//29 133//30 21//31 9//32
f 166//33 130//34 22//35 10//36
f 163//37 127//38 23//39 11//40
f 160//41 124//42 24//43 12//44
f 157//45 121//46 154//47 190//48
f 25//49 191//50 188//51
f 110//52 158//53 192//54
f 111//55 161//56 159//57
f 112//58 164//59 162//60
f 113//61 167//62 165//63
f 114//64 170//65 168//66
f 115//67 173//68 171//69
f 116//70 176//71 174//72
f 117//73 179//74 177//75
f 118//76 182//77 180//78
f 119//79 185//80 183//81
f 120//82 189//83 186//84
f 26//85 152//86 155//87
f 99//88 149//89 153//90
f 100//91 146//92 150//93
f 101//94 143//95 147//96
f 102//97 140//98 144//99
f 103//100 137//101 141//102
f 104//103 134//104 138//105
f 105//106 131//107 135//108
f 106//109 128//110 132//111
f 107//112 125//113 129//114
f 108//115 122//116 126//117
f 109//118 156//119 123//120
g Orange
f 28//121 27//122 31//123 32//124
f 29//125 95//126 87//127 33//128
f 30//129 93//130 85//131 34//132
f 97//133 91//134 83//135 89//136
f 94//137 92//138 98//139 96//140
f 88//141 90//142 84//143 86//144
f 36//145 40//146 39//147 35//148
f 37//149 41//150 71//151 79//152
f 38//153 42//154 69//155 77//156
f 81//157 73//158 67//159 75//160
f 78//161 80//162 82//163 76//164
f 72//165 70//166 68//167 74//168
f 44//169 43//170 47//171 48//172
f 45//173 63//174 55//175 49//176
f 46//177 61//178 53//179 50//180
f 65//181 59//182 51//183 57//184
f 62//185 60//186 66//187 64//188
f 56//189 58//190 52//191 54//192
